<?xml version="1.0" encoding="UTF-8" standalone="no"?>
<svg
   xmlns:dc="http://purl.org/dc/elements/1.1/"
   xmlns:cc="http://creativecommons.org/ns#"
   xmlns:rdf="http://www.w3.org/1999/02/22-rdf-syntax-ns#"
   xmlns:svg="http://www.w3.org/2000/svg"
   xmlns="http://www.w3.org/2000/svg"
   xmlns:sodipodi="http://sodipodi.sourceforge.net/DTD/sodipodi-0.dtd"
   xmlns:inkscape="http://www.inkscape.org/namespaces/inkscape"
   width="139"
   height="52"
   viewBox="0 0 139 52"
   version="1.1"
   id="svg5920"
   sodipodi:docname="logo.svg"
   inkscape:version="0.92.1 r15371">
  <metadata
     id="metadata5924">
    <rdf:RDF>
      <cc:Work
         rdf:about="">
        <dc:format>image/svg+xml</dc:format>
        <dc:type
           rdf:resource="http://purl.org/dc/dcmitype/StillImage" />
        <dc:title></dc:title>
      </cc:Work>
    </rdf:RDF>
  </metadata>
  <sodipodi:namedview
     pagecolor="#ffffff"
     bordercolor="#666666"
     borderopacity="1"
     objecttolerance="10"
     gridtolerance="10"
     guidetolerance="10"
     inkscape:pageopacity="0"
     inkscape:pageshadow="2"
     inkscape:window-width="1920"
     inkscape:window-height="1017"
     id="namedview5922"
     showgrid="false"
     inkscape:zoom="5.9945769"
     inkscape:cx="75.926202"
     inkscape:cy="38.292139"
     inkscape:window-x="-8"
     inkscape:window-y="-8"
     inkscape:window-maximized="1"
     inkscape:current-layer="svg5920" />
  <defs
     id="defs5880">
    <path
       id="b"
       d="M 0,0 H 1024 V 72 H 0 Z"
       inkscape:connector-curvature="0" />
    <filter
       id="a"
       width="1.0140001"
       height="1.194"
       x="-0.0069999998"
       y="-0.068999998"
       filterUnits="objectBoundingBox">
      <feOffset
         dy="2"
         in="SourceAlpha"
         result="shadowOffsetOuter1"
         id="feOffset5873" />
      <feGaussianBlur
         in="shadowOffsetOuter1"
         result="shadowBlurOuter1"
         stdDeviation="2"
         id="feGaussianBlur5875" />
      <feColorMatrix
         in="shadowBlurOuter1"
         values="0 0 0 0 0 0 0 0 0 0 0 0 0 0 0 0 0 0 0.14880548 0"
         id="feColorMatrix5877" />
    </filter>
  </defs>
  <path
     style="fill:none;fill-rule:evenodd;stroke:#54e4a3;stroke-width:4"
     inkscape:connector-curvature="0"
     id="path5888"
     d="M 3,2 H 52 V 50 H 3 Z" />
  <g
     aria-label="S"
     style="font-size:32px;font-family:MinionPro-Regular, 'Minion Pro';fill:#000000;fill-rule:evenodd"
     id="text5892">
    <path
       d="m 27.44725,35.359375 q 0,1.359375 -0.640625,2.6875 -0.625,1.328125 -1.765625,2.25 -1.25,1 -2.921875,1.5625 -1.65625,0.5625 -4,0.5625 -2.515625,0 -4.53125,-0.46875 -2,-0.46875 -4.0781251,-1.390625 v -3.875 h 0.21875 q 1.7656251,1.46875 4.0781251,2.265625 2.3125,0.796875 4.34375,0.796875 2.875,0 4.46875,-1.078125 1.609375,-1.078125 1.609375,-2.875 0,-1.546875 -0.765625,-2.28125 Q 22.712875,32.78125 21.166,32.375 19.994125,32.0625 18.619125,31.859375 17.25975,31.65625 15.7285,31.34375 12.63475,30.6875 11.13475,29.109375 9.6503749,27.515625 9.6503749,24.96875 q 0,-2.921875 2.4687501,-4.78125 2.46875,-1.875 6.265625,-1.875 2.453125,0 4.5,0.46875 2.046875,0.46875 3.625,1.15625 v 3.65625 H 26.291 q -1.328125,-1.125 -3.5,-1.859375 -2.15625,-0.75 -4.421875,-0.75 -2.484375,0 -4,1.03125 -1.5,1.03125 -1.5,2.65625 0,1.453125 0.75,2.28125 0.75,0.828125 2.640625,1.265625 1,0.21875 2.84375,0.53125 1.84375,0.3125 3.125,0.640625 2.59375,0.6875 3.90625,2.078125 1.3125,1.390625 1.3125,3.890625 z"
       style=""
       id="path6490" />
  </g>
  <g
     aria-label="c"
     style="font-size:32px;font-family:MinionPro-Regular, 'Minion Pro';fill:#000000;fill-rule:evenodd"
     id="text5896">
    <path
       d="M 38.028875,40.90625 Q 36.560125,41.609375 35.232,42 q -1.3125,0.390625 -2.796875,0.390625 -1.890625,0 -3.46875,-0.546875 -1.578125,-0.5625 -2.703125,-1.6875 -1.140625,-1.125 -1.765625,-2.84375 -0.625,-1.71875 -0.625,-4.015625 0,-4.28125 2.34375,-6.71875 2.359375,-2.4375 6.21875,-2.4375 1.5,0 2.9375,0.421875 1.453125,0.421875 2.65625,1.03125 v 3.265625 h -0.15625 Q 36.528875,27.8125 35.091375,27.25 33.6695,26.6875 32.310125,26.6875 q -2.5,0 -3.953125,1.6875 -1.4375,1.671875 -1.4375,4.921875 0,3.15625 1.40625,4.859375 1.421875,1.6875 3.984375,1.6875 0.890625,0 1.8125,-0.234375 Q 35.0445,39.375 35.778875,39 36.4195,38.671875 36.982,38.3125 q 0.5625,-0.375 0.890625,-0.640625 h 0.15625 z"
       style=""
       id="path6493" />
  </g>
  <g
     aria-label="i"
     style="font-size:32px;font-family:MinionPro-Regular, 'Minion Pro';fill:#000000;fill-rule:evenodd"
     id="text5900">
    <path
       d="m 42.758877,21.625 h -3.3125 v -3.046875 h 3.3125 z M 42.571377,42 h -2.9375 V 24.546875 h 2.9375 z"
       style=""
       id="path6496" />
  </g>
  <g
     aria-label="T"
     style="font-weight:bold;font-size:28px;font-family:PTSans-CaptionBold, 'PT Sans Caption';fill:#000000;fill-rule:evenodd"
     id="text5904">
    <path
       d="M 77.90139,24.580078 H 71.543968 V 41 h -5.25 V 24.580078 h -6.357422 v -3.9375 H 77.90139 Z"
       style=""
       id="path6487" />
  </g>
  <g
     aria-label="E"
     style="font-weight:bold;font-size:28px;font-family:PTSans-CaptionBold, 'PT Sans Caption';fill:#000000;fill-rule:evenodd"
     id="text5908">
    <path
       d="M 96.398262,41 H 81.673653 V 20.642578 h 14.724609 v 3.9375 h -9.501953 v 3.513672 h 8.818359 v 3.9375 h -8.818359 v 5.03125 h 9.501953 z"
       style=""
       id="path6499" />
  </g>
  <g
     aria-label="C"
     style="font-weight:bold;font-size:28px;font-family:PTSans-CaptionBold, 'PT Sans Caption';fill:#000000;fill-rule:evenodd"
     id="text5912">
    <path
       d="m 109.80083,41.396484 q -2.26953,0 -4.19727,-0.669922 -1.91406,-0.669921 -3.29492,-1.996093 -1.38086,-1.326172 -2.14648,-3.308594 -0.751958,-1.982422 -0.751958,-4.580078 0,-2.419922 0.724608,-4.388672 0.72461,-1.96875 2.10547,-3.376953 1.32617,-1.353516 3.28125,-2.091797 1.96875,-0.738281 4.29297,-0.738281 1.28516,0 2.31055,0.15039 1.03906,0.136719 1.91406,0.369141 0.91601,0.259766 1.6543,0.587891 0.75195,0.314453 1.3125,0.58789 v 4.935547 h -0.60157 q -0.38281,-0.328125 -0.9707,-0.779297 -0.57422,-0.451172 -1.3125,-0.888672 -0.75195,-0.4375 -1.62695,-0.738281 -0.875,-0.300781 -1.87305,-0.300781 -1.10742,0 -2.10547,0.355469 -0.99805,0.341796 -1.8457,1.148437 -0.80664,0.779297 -1.3125,2.064453 -0.49219,1.285156 -0.49219,3.117188 0,1.914062 0.5332,3.199218 0.54688,1.285157 1.36719,2.023438 0.83399,0.751953 1.85938,1.080078 1.02539,0.314453 2.02343,0.314453 0.95703,0 1.88672,-0.287109 0.94336,-0.28711 1.73633,-0.779297 0.66992,-0.396484 1.24414,-0.847656 0.57422,-0.451172 0.94336,-0.779297 h 0.54688 v 4.867187 q -0.76563,0.341797 -1.4629,0.642578 -0.69726,0.300782 -1.46289,0.519532 -0.99804,0.287109 -1.87304,0.4375 -0.875,0.15039 -2.40625,0.15039 z"
       style=""
       id="path6502" />
  </g>
  <g
     aria-label="H"
     style="font-weight:bold;font-size:28px;font-family:PTSans-CaptionBold, 'PT Sans Caption';fill:#000000;fill-rule:evenodd"
     id="text5916">
    <path
       d="m 137.96561,41 h -5.25 v -8.96875 h -7.75196 V 41 h -5.25 V 20.642578 h 5.25 v 7.451172 h 7.75196 v -7.451172 h 5.25 z"
       style=""
       id="path6505" />
  </g>
</svg>
